HIERARCHY
ROOT Hips
{
 OFFSET 0.000000 0.000000 0.000000
 CHANNELS 6 Xposition Yposition Zposition Yrotation Xrotation Zrotation
 JOINT Chest
 {
  OFFSET 0.000000 9.585900 0.002600
  CHANNELS 3 Yrotation Xrotation Zrotation
  JOINT Chest2
  {
   OFFSET 0.000000 9.601200 -0.005300
   CHANNELS 3 Yrotation Xrotation Zrotation
   JOINT Chest3
   {
    OFFSET 0.000000 9.561800 0.000000
    CHANNELS 3 Yrotation Xrotation Zrotation
    JOINT Chest4
    {
     OFFSET 0.000000 9.552100 0.000000
     CHANNELS 3 Yrotation Xrotation Zrotation
     JOINT Neck
     {
      OFFSET 0.000000 14.453000 0.000000
      CHANNELS 3 Yrotation Xrotation Zrotation
      JOINT Head
      {
       OFFSET 0.000000 8.936500 -0.011300
       CHANNELS 3 Yrotation Xrotation Zrotation
       End Site
       {
        OFFSET 0.000000 17.073600 -0.006000
       }
      }
     }
     JOINT RightCollar
     {
      OFFSET -2.921100 9.558500 0.000000
      CHANNELS 3 Yrotation Xrotation Zrotation
      JOINT RightShoulder
      {
       OFFSET -13.519700 0.000000 0.000000
       CHANNELS 3 Yrotation Xrotation Zrotation
       JOINT RightElbow
       {
        OFFSET 0.000000 -29.696600 0.000000
        CHANNELS 3 Yrotation Xrotation Zrotation
        JOINT RightWrist
        {
         OFFSET 0.000000 -24.004700 0.000000
         CHANNELS 3 Yrotation Xrotation Zrotation
         End Site
         {
          OFFSET 0.000000 -17.728500 0.000000
         }
        }
       }
      }
     }
     JOINT LeftCollar
     {
      OFFSET 2.921100 9.558500 0.000000
      CHANNELS 3 Yrotation Xrotation Zrotation
      JOINT LeftShoulder
      {
       OFFSET 13.519700 0.000000 0.000000
       CHANNELS 3 Yrotation Xrotation Zrotation
       JOINT LeftElbow
       {
        OFFSET 0.000000 -29.696600 0.000000
        CHANNELS 3 Yrotation Xrotation Zrotation
        JOINT LeftWrist
        {
         OFFSET 0.000000 -24.004700 0.000000
         CHANNELS 3 Yrotation Xrotation Zrotation
         End Site
         {
          OFFSET 0.000000 -17.728500 0.000000
         }
        }
       }
      }
     }
    }
   }
  }
 }
 JOINT RightHip
 {
  OFFSET -7.771700 -0.012900 -0.001300
  CHANNELS 3 Yrotation Xrotation Zrotation
  JOINT RightKnee
  {
   OFFSET 0.000000 -40.869800 0.001200
   CHANNELS 3 Yrotation Xrotation Zrotation
   JOINT RightAnkle
   {
    OFFSET 0.000000 -39.717900 0.002100
    CHANNELS 3 Yrotation Xrotation Zrotation
    JOINT RightToe
    {
     OFFSET 0.000000 -4.965400 11.033500
     CHANNELS 3 Yrotation Xrotation Zrotation
     End Site
     {
      OFFSET 0.000000 -1.423100 5.872300
     }
    }
   }
  }
 }
 JOINT LeftHip
 {
  OFFSET 7.771700 -0.012900 -0.001300
  CHANNELS 3 Yrotation Xrotation Zrotation
  JOINT LeftKnee
  {
   OFFSET 0.000000 -40.869800 0.001200
   CHANNELS 3 Yrotation Xrotation Zrotation
   JOINT LeftAnkle
   {
    OFFSET 0.000000 -39.717900 0.002100
    CHANNELS 3 Yrotation Xrotation Zrotation
    JOINT LeftToe
    {
     OFFSET 0.000000 -4.965400 11.033500
     CHANNELS 3 Yrotation Xrotation Zrotation
     End Site
     {
      OFFSET 0.000000 -1.423100 5.872300
     }
    }
   }
  }
 }
}
MOTION
Frames: 9
Frame Time: 0.008333
-32.762108 57.739807 92.159956 -167.769387 -48.717391 0.093293 -6.691429 28.245917 0.228048 -1.225231 5.294968 0.234622 -1.847300 8.339013 0.287171 -5.220535 22.818949 0.160333 -0.550052 15.358014 -3.392222 0.272594 -7.135409 -6.228324 5.091188 1.733124 -2.461304 23.230421 -37.792949 -20.099574 28.872504 -52.142971 -5.450898 10.823257 6.105664 -21.958042 -12.312656 -3.839094 -5.251665 -11.888261 -30.318282 3.358812 -39.601694 -67.520334 -10.026108 -11.601082 -22.744708 5.678562 3.256627 -22.018126 -14.200775 -3.981254 79.577445 -0.671706 4.055092 -8.140587 5.079636 -0.007410 0.048665 0.025084 -12.879346 -28.178442 -15.588034 40.109275 76.549390 32.231722 -27.283111 -5.884244 -0.428149 -0.103944 -0.531512 -0.141416
-32.756271 57.731498 92.135388 -167.778559 -48.659303 0.082671 -6.716946 28.185353 0.248361 -1.215725 5.284708 0.230499 -1.882235 8.290776 0.306208 -5.246260 22.789902 0.163400 -0.486207 15.343366 -3.414736 0.360060 -7.227787 -6.221049 5.137665 1.794997 -2.517587 23.241488 -37.834826 -20.136210 28.801946 -52.096688 -5.329790 10.825474 6.114239 -21.956520 -12.281965 -3.816798 -5.312692 -11.903057 -30.351446 3.380416 -39.047632 -67.410674 -10.569229 -11.581054 -22.752376 5.707083 3.250430 -22.080244 -14.206360 -3.928567 79.614456 -0.589301 4.069763 -8.165962 5.042379 -0.010983 0.052348 0.020775 -12.875046 -28.225575 -15.552367 40.189797 76.580857 32.317635 -27.291589 -5.897966 -0.390709 -0.096465 -0.532473 -0.137540
-32.751835 57.726463 92.108775 -167.774657 -48.623021 0.068525 -6.726601 28.148311 0.262637 -1.230711 5.273279 0.234186 -1.886876 8.273739 0.307527 -5.253685 22.779093 0.163562 -0.443542 15.283843 -3.387369 0.449886 -7.316852 -6.203337 5.151815 1.805598 -2.534730 23.243377 -37.880327 -20.166527 28.704373 -52.048953 -5.175652 10.822473 6.155564 -21.967802 -12.287169 -3.827992 -5.320755 -11.910793 -30.385465 3.394686 -38.520159 -67.295750 -11.089037 -11.559139 -22.760934 5.734426 3.235209 -22.114188 -14.214703 -3.871019 79.648564 -0.506787 4.079930 -8.196971 5.010462 -0.013755 0.057394 0.015911 -12.872352 -28.249855 -15.533583 40.232793 76.612500 32.372402 -27.290551 -5.914669 -0.367308 -0.092214 -0.529765 -0.122525
-32.742175 57.721727 92.082065 -167.759693 -48.583514 0.015703 -6.769796 28.111469 0.299162 -1.208473 5.263575 0.227680 -1.891459 8.257452 0.308143 -5.249496 22.781332 0.158534 -0.407619 15.213498 -3.345889 0.540828 -7.403275 -6.174858 5.157580 1.798461 -2.544738 23.249202 -37.980369 -20.242047 28.492670 -51.959610 -4.864910 10.830104 6.212922 -21.992243 -12.293271 -3.838258 -5.321474 -11.927562 -30.424655 3.407901 -38.021277 -67.174837 -11.576951 -11.533898 -22.770230 5.753925 3.175222 -22.152400 -14.191052 -3.715998 79.671261 -0.331712 4.096853 -8.227171 4.963048 -0.020946 0.066114 0.009661 -12.892199 -28.270446 -15.484974 40.310200 76.641768 32.461956 -27.260085 -5.893875 -0.323117 -0.109008 -0.566172 -0.130176
-32.729686 57.722003 92.052172 -167.792702 -48.577577 -0.021632 -6.744184 28.111426 0.359853 -1.210963 5.252887 0.227750 -1.895671 8.241795 0.308328 -5.269322 22.760545 0.158643 -0.352555 15.168364 -3.315638 0.630358 -7.487384 -6.135694 5.192617 1.804088 -2.564170 23.247120 -37.993148 -20.268674 28.418048 -51.925062 -4.746239 10.822542 6.246811 -21.996615 -12.258120 -3.808474 -5.355654 -11.941949 -30.446962 3.416657 -37.607719 -67.071534 -11.992793 -11.508738 -22.779110 5.768597 3.163566 -22.151604 -14.120823 -3.731760 79.688048 -0.333062 4.102140 -8.248676 4.941714 -0.020942 0.064081 0.007697 -12.886736 -28.254819 -15.429171 40.446034 76.682133 32.631372 -27.273307 -5.922726 -0.267114 -0.082893 -0.577277 -0.155841
-32.725907 57.720059 92.028645 -167.799834 -48.547527 -0.019479 -6.758703 28.080044 0.359218 -1.220154 5.243103 0.228214 -1.883358 8.239586 0.305627 -5.338682 22.683755 0.178611 -0.271350 15.168852 -3.309809 0.715889 -7.570968 -6.085897 5.263465 1.886737 -2.613086 23.246726 -38.032129 -20.297799 28.352505 -51.891014 -4.641478 10.817405 6.279978 -22.002681 -12.206204 -3.768670 -5.406774 -11.919894 -30.448453 3.398055 -37.199994 -66.972366 -12.399455 -11.487240 -22.781841 5.782655 3.137524 -22.181016 -14.125323 -3.619365 79.713893 -0.224390 4.107834 -8.278450 4.920104 -0.022462 0.066727 0.003367 -12.872175 -28.272040 -15.434776 40.503908 76.693195 32.718518 -27.281081 -5.930910 -0.247256 -0.114820 -0.577837 -0.154738
-32.722026 57.718794 92.007346 -167.809072 -48.517056 -0.013804 -6.757707 28.049053 0.361726 -1.228201 5.238520 0.228689 -1.885110 8.231001 0.305703 -5.364455 22.657884 0.182055 -0.221048 15.122626 -3.267307 0.796396 -7.655821 -6.026691 5.285803 1.909070 -2.629241 23.260020 -38.056665 -20.321505 28.279410 -51.857776 -4.533386 10.830175 6.293034 -22.017735 -12.194999 -3.767215 -5.415218 -11.916790 -30.478030 3.387182 -36.761702 -66.860450 -12.821089 -11.470617 -22.780523 5.790586 3.073844 -22.216491 -14.147449 -3.330057 79.734291 0.059301 4.122914 -8.307926 4.866219 -0.028382 0.077138 -0.001744 -12.859078 -28.289309 -15.445399 40.544427 76.702500 32.786667 -27.261255 -5.943855 -0.233572 -0.119503 -0.572967 -0.149485
-32.718818 57.719501 91.987510 -167.812432 -48.497712 -0.007420 -6.788533 28.030348 0.346981 -1.214913 5.233517 0.227553 -1.902393 8.213240 0.307988 -5.371736 22.642748 0.178306 -0.173729 15.076365 -3.221443 0.869995 -7.741083 -5.960084 5.305568 1.933939 -2.647204 23.270873 -38.073267 -20.331882 28.230128 -51.830339 -4.466226 10.840403 6.304053 -22.028375 -12.182215 -3.767822 -5.422773 -11.967397 -30.526065 3.386466 -36.376607 -66.741245 -13.143148 -11.424719 -22.772724 5.779832 3.039967 -22.233633 -14.159905 -3.224919 79.751771 0.158573 4.136055 -8.332546 4.839520 -0.026343 0.082250 -0.004133 -12.852488 -28.296894 -15.465916 40.562484 76.708328 32.832012 -27.233649 -5.958333 -0.233856 -0.083622 -0.543871 -0.111183
-32.716610 57.719519 91.971720 -167.808092 -48.469863 0.002901 -6.825491 28.002946 0.324658 -1.235183 5.218909 0.228974 -1.886124 8.205240 0.303055 -5.363940 22.645118 0.171951 -0.140077 15.014938 -3.165645 0.934974 -7.825461 -5.887541 5.294544 1.948335 -2.663126 23.291726 -38.081773 -20.327331 28.189560 -51.808699 -4.423450 10.849455 6.328667 -22.043335 -12.196355 -3.783361 -5.401981 -11.954420 -30.526405 3.348539 -36.262140 -66.698031 -13.223149 -11.311297 -22.749242 5.749448 3.022812 -22.257807 -14.185899 -3.156658 79.768829 0.232735 4.139488 -8.350965 4.819177 -0.026644 0.088245 -0.006474 -12.851113 -28.320763 -15.485804 40.578945 76.711672 32.861392 -27.213405 -5.946189 -0.217297 -0.089371 -0.556404 -0.114753
